#usda 1.0
(
 customLayerData = {
  string "aeco:layer:package" = "wall"
  string "aeco:layer:producer" = "hook v0.2.6"
  string "aeco:layer:role" = "analysis"
  string "aeco:layer:source" = "kind/usdaeco-wall/examples/datacentre/run.py"
  string "aeco:layer:sourceSha256" = "9e18f0a19e4439b31ec3dbb5c225b2806f76e62202406a6d905bac191b147479"
  string "aeco:layer:tag" = "v0.2.6"
  string "aeco:wall:layer" = "derived"
  string "aeco:wall:producer" = "aeco-wall 0.2.6"
 }
)

over "demo_datacentre_01"
{
 over "demo_datacentre_01_Site"
 {
  over "demo_datacentre_01"
  {
   over "L01_Office"
   {
    over "wall_l1_v_017"
    {
     double aeco:wall:grossSideArea = 11.999999999999998
     double aeco:wall:grossVolume = 3.599999999999999
     double aeco:wall:netSideArea = 11.999999999999998
     double aeco:wall:netVolume = 3.600000000000013
     double aeco:wall:thickness = 0.29999999999999993
    }

    over "wall_l1_h_001"
    {
     double aeco:wall:grossSideArea = 30
     double aeco:wall:grossVolume = 8.999999999999998
     double aeco:wall:netSideArea = 30
     double aeco:wall:netVolume = 8.999999999999966
     double aeco:wall:thickness = 0.29999999999999993
    }

    over "wall_l1_v_014"
    {
     double aeco:wall:grossSideArea = 26.999999999999996
     double aeco:wall:grossVolume = 4.049999999999999
     double aeco:wall:netSideArea = 26.999999999999996
     double aeco:wall:netVolume = 4.050000000000013
     double aeco:wall:thickness = 0.14999999999999997
    }

    over "wall_l1_h_008"
    {
     double aeco:wall:grossSideArea = 12.000000000000002
     double aeco:wall:grossVolume = 1.8
     double aeco:wall:netSideArea = 12.000000000000002
     double aeco:wall:netVolume = 1.8000000000000003
     double aeco:wall:thickness = 0.14999999999999997
    }

    over "wall_l1_h_002"
    {
     double aeco:wall:grossSideArea = 12.000000000000002
     double aeco:wall:grossVolume = 3.6
     double aeco:wall:netSideArea = 12.000000000000002
     double aeco:wall:netVolume = 3.599999999999988
     double aeco:wall:thickness = 0.29999999999999993
    }

    over "wall_l1_h_010"
    {
     double aeco:wall:grossSideArea = 45
     double aeco:wall:grossVolume = 13.499999999999998
     double aeco:wall:netSideArea = 44.99999999999999
     double aeco:wall:netVolume = 13.499999999999996
     double aeco:wall:thickness = 0.29999999999999993
    }

    over "wall_l1_h_007"
    {
     double aeco:wall:grossSideArea = 12.000000000000002
     double aeco:wall:grossVolume = 1.8
     double aeco:wall:netSideArea = 12.000000000000002
     double aeco:wall:netVolume = 1.8000000000000003
     double aeco:wall:thickness = 0.14999999999999997
    }

    over "wall_l1_v_013"
    {
     double aeco:wall:grossSideArea = 9
     double aeco:wall:grossVolume = 1.3499999999999999
     double aeco:wall:netSideArea = 9
     double aeco:wall:netVolume = 1.3500000000000045
     double aeco:wall:thickness = 0.14999999999999997
    }

    over "wall_l1_v_019"
    {
     double aeco:wall:grossSideArea = 9
     double aeco:wall:grossVolume = 2.6999999999999997
     double aeco:wall:netSideArea = 9
     double aeco:wall:netVolume = 2.700000000000009
     double aeco:wall:thickness = 0.29999999999999993
    }

    over "wall_l1_v_012"
    {
     double aeco:wall:grossSideArea = 9
     double aeco:wall:grossVolume = 2.6999999999999997
     double aeco:wall:netSideArea = 9
     double aeco:wall:netVolume = 2.69999999999999
     double aeco:wall:thickness = 0.29999999999999993
    }

    over "wall_l1_h_006"
    {
     double aeco:wall:grossSideArea = 20.999999999999996
     double aeco:wall:grossVolume = 3.149999999999999
     double aeco:wall:netSideArea = 20.999999999999996
     double aeco:wall:netVolume = 3.1499999999999995
     double aeco:wall:thickness = 0.14999999999999997
    }

    over "wall_l1_h_004"
    {
     double aeco:wall:grossSideArea = 12.000000000000002
     double aeco:wall:grossVolume = 1.8
     double aeco:wall:netSideArea = 12.000000000000002
     double aeco:wall:netVolume = 1.799999999999994
     double aeco:wall:thickness = 0.14999999999999997
    }

    over "wall_l1_h_003"
    {
     double aeco:wall:grossSideArea = 12.000000000000002
     double aeco:wall:grossVolume = 3.6
     double aeco:wall:netSideArea = 12.000000000000002
     double aeco:wall:netVolume = 3.599999999999988
     double aeco:wall:thickness = 0.29999999999999993
    }

    over "wall_l1_v_018"
    {
     double aeco:wall:grossSideArea = 15.000000000000002
     double aeco:wall:grossVolume = 4.5
     double aeco:wall:netSideArea = 15.000000000000002
     double aeco:wall:netVolume = 4.500000000000017
     double aeco:wall:thickness = 0.29999999999999993
    }

    over "wall_l1_v_015"
    {
     double aeco:wall:grossSideArea = 11.999999999999998
     double aeco:wall:grossVolume = 1.7999999999999996
     double aeco:wall:netSideArea = 11.999999999999998
     double aeco:wall:netVolume = 1.8000000000000065
     double aeco:wall:thickness = 0.14999999999999997
    }

    over "wall_l1_h_009"
    {
     double aeco:wall:grossSideArea = 9.000000000000002
     double aeco:wall:grossVolume = 2.7
     double aeco:wall:netSideArea = 9.000000000000004
     double aeco:wall:netVolume = 2.6999999999999997
     double aeco:wall:thickness = 0.29999999999999993
    }

    over "wall_l1_v_016"
    {
     double aeco:wall:grossSideArea = 15.000000000000002
     double aeco:wall:grossVolume = 2.25
     double aeco:wall:netSideArea = 15.000000000000002
     double aeco:wall:netVolume = 2.2500000000000084
     double aeco:wall:thickness = 0.14999999999999997
    }

    over "wall_l1_v_011"
    {
     double aeco:wall:grossSideArea = 26.999999999999996
     double aeco:wall:grossVolume = 8.099999999999998
     double aeco:wall:netSideArea = 26.999999999999996
     double aeco:wall:netVolume = 8.09999999999997
     double aeco:wall:thickness = 0.29999999999999993
    }

    over "wall_l1_h_005"
    {
     double aeco:wall:grossSideArea = 9.000000000000002
     double aeco:wall:grossVolume = 1.35
     double aeco:wall:netSideArea = 9.000000000000004
     double aeco:wall:netVolume = 1.35
     double aeco:wall:thickness = 0.14999999999999997
    }
   }

   over "L00_Ground"
   {
    over "wall_l0_v_051"
    {
     double aeco:wall:grossSideArea = 11.249999999999998
     double aeco:wall:grossVolume = 1.6874999999999996
     double aeco:wall:netSideArea = 11.249999999999998
     double aeco:wall:netVolume = 1.687500000000006
     double aeco:wall:thickness = 0.14999999999999997
    }

    over "wall_l0_v_063"
    {
     double aeco:wall:grossSideArea = 35.99999999999999
     double aeco:wall:grossVolume = 7.2
     double aeco:wall:netSideArea = 35.99999999999999
     double aeco:wall:netVolume = 7.19999999999992
     double aeco:wall:thickness = 0.2
    }

    over "wall_l0_h_033"
    {
     double aeco:wall:grossSideArea = 179.99999999999997
     double aeco:wall:grossVolume = 36
     double aeco:wall:netSideArea = 179.99999999999997
     double aeco:wall:netVolume = 35.99999999999999
     double aeco:wall:thickness = 0.2
    }

    over "wall_l0_h_039"
    {
     double aeco:wall:grossSideArea = 28
     double aeco:wall:grossVolume = 8.399999999999999
     double aeco:wall:netSideArea = 28
     double aeco:wall:netVolume = 8.400000000000032
     double aeco:wall:thickness = 0.29999999999999993
    }

    over "wall_l0_v_069"
    {
     double aeco:wall:grossSideArea = 107.99999999999999
     double aeco:wall:grossVolume = 21.6
     double aeco:wall:netSideArea = 107.99999999999999
     double aeco:wall:netVolume = 21.59999999999976
     double aeco:wall:thickness = 0.2
    }

    over "wall_l0_h_022"
    {
     double aeco:wall:grossSideArea = 72
     double aeco:wall:grossVolume = 14.400000000000002
     double aeco:wall:netSideArea = 72
     double aeco:wall:netVolume = 14.400000000000002
     double aeco:wall:thickness = 0.2
    }

    over "wall_l0_v_048"
    {
     double aeco:wall:grossSideArea = 53.99999999999999
     double aeco:wall:grossVolume = 10.8
     double aeco:wall:netSideArea = 53.99999999999999
     double aeco:wall:netVolume = 10.799999999999999
     double aeco:wall:thickness = 0.2
    }

    over "wall_l0_v_043"
    {
     double aeco:wall:grossSideArea = 125.99999999999999
     double aeco:wall:grossVolume = 37.8
     double aeco:wall:netSideArea = 125.99999999999999
     double aeco:wall:netVolume = 37.79999999999999
     double aeco:wall:thickness = 0.29999999999999993
    }

    over "wall_l0_v_058"
    {
     double aeco:wall:grossSideArea = 22.499999999999996
     double aeco:wall:grossVolume = 4.5
     double aeco:wall:netSideArea = 22.499999999999996
     double aeco:wall:netVolume = 4.500000000000047
     double aeco:wall:thickness = 0.2
    }

    over "wall_l0_v_053"
    {
     double aeco:wall:grossSideArea = 35.99999999999999
     double aeco:wall:grossVolume = 7.2
     double aeco:wall:netSideArea = 35.99999999999999
     double aeco:wall:netVolume = 7.1999999999999975
     double aeco:wall:thickness = 0.2
    }

    over "wall_l0_v_047"
    {
     double aeco:wall:grossSideArea = 35.99999999999999
     double aeco:wall:grossVolume = 7.2
     double aeco:wall:netSideArea = 35.99999999999999
     double aeco:wall:netVolume = 7.1999999999999975
     double aeco:wall:thickness = 0.2
    }

    over "wall_l0_v_064"
    {
     double aeco:wall:grossSideArea = 53.99999999999999
     double aeco:wall:grossVolume = 10.8
     double aeco:wall:netSideArea = 53.99999999999999
     double aeco:wall:netVolume = 10.79999999999988
     double aeco:wall:thickness = 0.2
    }

    over "wall_l0_h_010"
    {
     double aeco:wall:grossSideArea = 21
     double aeco:wall:grossVolume = 4.2
     double aeco:wall:netSideArea = 21
     double aeco:wall:netVolume = 4.199999999999999
     double aeco:wall:thickness = 0.2
    }

    over "wall_l0_h_008"
    {
     double aeco:wall:grossSideArea = 11.25
     double aeco:wall:grossVolume = 1.6874999999999998
     double aeco:wall:netSideArea = 11.249999999999998
     double aeco:wall:netVolume = 1.6875000000000004
     double aeco:wall:thickness = 0.14999999999999997
    }

    over "wall_l0_h_017"
    {
     double aeco:wall:grossSideArea = 41.99999999999997
     double aeco:wall:grossVolume = 12.599999999999989
     double aeco:wall:netSideArea = 27.999999999999964
     double aeco:wall:netVolume = 8.399999999999986
     double aeco:wall:thickness = 0.29999999999999993
    }

    over "wall_l0_h_036"
    {
     double aeco:wall:grossSideArea = 209.99999999999994
     double aeco:wall:grossVolume = 62.99999999999997
     double aeco:wall:netSideArea = 209.99999999999994
     double aeco:wall:netVolume = 63.00000000000023
     double aeco:wall:thickness = 0.29999999999999993
    }

    over "wall_l0_v_065"
    {
     double aeco:wall:grossSideArea = 35.99999999999999
     double aeco:wall:grossVolume = 7.2
     double aeco:wall:netSideArea = 35.99999999999999
     double aeco:wall:netVolume = 7.19999999999992
     double aeco:wall:thickness = 0.2
    }

    over "wall_l0_v_040"
    {
     double aeco:wall:grossSideArea = 41.99999999999999
     double aeco:wall:grossVolume = 12.599999999999996
     double aeco:wall:netSideArea = 42
     double aeco:wall:netVolume = 12.599999999999994
     double aeco:wall:thickness = 0.29999999999999993
    }

    over "wall_l0_v_070"
    {
     double aeco:wall:grossSideArea = 41.99999999999999
     double aeco:wall:grossVolume = 12.599999999999996
     double aeco:wall:netSideArea = 42
     double aeco:wall:netVolume = 12.600000000000042
     double aeco:wall:thickness = 0.29999999999999993
    }

    over "wall_l0_v_061"
    {
     double aeco:wall:grossSideArea = 107.99999999999999
     double aeco:wall:grossVolume = 21.6
     double aeco:wall:netSideArea = 107.99999999999999
     double aeco:wall:netVolume = 21.600000000000232
     double aeco:wall:thickness = 0.2
    }

    over "wall_l0_h_009"
    {
     double aeco:wall:grossSideArea = 83.99999999999999
     double aeco:wall:grossVolume = 25.199999999999992
     double aeco:wall:netSideArea = 84
     double aeco:wall:netVolume = 25.19999999999999
     double aeco:wall:thickness = 0.29999999999999993
    }

    over "wall_l0_v_052"
    {
     double aeco:wall:grossSideArea = 11.249999999999998
     double aeco:wall:grossVolume = 1.6874999999999996
     double aeco:wall:netSideArea = 11.249999999999998
     double aeco:wall:netVolume = 1.687500000000006
     double aeco:wall:thickness = 0.14999999999999997
    }

    over "wall_l0_h_032"
    {
     double aeco:wall:grossSideArea = 23.999999999999996
     double aeco:wall:grossVolume = 3.599999999999999
     double aeco:wall:netSideArea = 23.999999999999996
     double aeco:wall:netVolume = 3.600000000000013
     double aeco:wall:thickness = 0.14999999999999997
    }

    over "wall_l0_v_068"
    {
     double aeco:wall:grossSideArea = 53.99999999999999
     double aeco:wall:grossVolume = 10.8
     double aeco:wall:netSideArea = 53.99999999999999
     double aeco:wall:netVolume = 10.79999999999988
     double aeco:wall:thickness = 0.2
    }

    over "wall_l0_h_028"
    {
     double aeco:wall:grossSideArea = 35.99999999999997
     double aeco:wall:grossVolume = 5.399999999999996
     double aeco:wall:netSideArea = 35.99999999999997
     double aeco:wall:netVolume = 5.4000000000000155
     double aeco:wall:thickness = 0.14999999999999997
    }

    over "wall_l0_v_042"
    {
     double aeco:wall:grossSideArea = 21
     double aeco:wall:grossVolume = 6.3
     double aeco:wall:netSideArea = 21
     double aeco:wall:netVolume = 6.299999999999998
     double aeco:wall:thickness = 0.29999999999999993
    }

    over "wall_l0_h_011"
    {
     double aeco:wall:grossSideArea = 21
     double aeco:wall:grossVolume = 4.2
     double aeco:wall:netSideArea = 21
     double aeco:wall:netVolume = 4.199999999999999
     double aeco:wall:thickness = 0.2
    }

    over "wall_l0_v_067"
    {
     double aeco:wall:grossSideArea = 35.99999999999999
     double aeco:wall:grossVolume = 7.2
     double aeco:wall:netSideArea = 35.99999999999999
     double aeco:wall:netVolume = 7.19999999999992
     double aeco:wall:thickness = 0.2
    }

    over "wall_l0_h_005"
    {
     double aeco:wall:grossSideArea = 15
     double aeco:wall:grossVolume = 2.2499999999999996
     double aeco:wall:netSideArea = 15
     double aeco:wall:netVolume = 2.2499999999999916
     double aeco:wall:thickness = 0.14999999999999997
    }

    over "wall_l0_v_055"
    {
     double aeco:wall:grossSideArea = 22.499999999999996
     double aeco:wall:grossVolume = 3.374999999999999
     double aeco:wall:netSideArea = 22.499999999999996
     double aeco:wall:netVolume = 3.375000000000012
     double aeco:wall:thickness = 0.14999999999999997
    }

    over "wall_l0_h_002"
    {
     double aeco:wall:grossSideArea = 15.99999999999999
     double aeco:wall:grossVolume = 4.799999999999996
     double aeco:wall:netSideArea = 15.999999999999993
     double aeco:wall:netVolume = 4.79999999999998
     double aeco:wall:thickness = 0.29999999999999993
    }

    over "wall_l0_v_049"
    {
     double aeco:wall:grossSideArea = 11.249999999999998
     double aeco:wall:grossVolume = 1.6874999999999996
     double aeco:wall:netSideArea = 11.249999999999998
     double aeco:wall:netVolume = 1.687500000000006
     double aeco:wall:thickness = 0.14999999999999997
    }

    over "wall_l0_v_072"
    {
     double aeco:wall:grossSideArea = 21
     double aeco:wall:grossVolume = 6.3
     double aeco:wall:netSideArea = 21
     double aeco:wall:netVolume = 6.300000000000022
     double aeco:wall:thickness = 0.29999999999999993
    }

    over "wall_l0_h_003"
    {
     double aeco:wall:grossSideArea = 32
     double aeco:wall:grossVolume = 9.6
     double aeco:wall:netSideArea = 31.999999999999996
     double aeco:wall:netVolume = 9.599999999999964
     double aeco:wall:thickness = 0.29999999999999993
    }

    over "wall_l0_h_012"
    {
     double aeco:wall:grossSideArea = 41.99999999999998
     double aeco:wall:grossVolume = 8.399999999999999
     double aeco:wall:netSideArea = 41.999999999999986
     double aeco:wall:netVolume = 8.399999999999997
     double aeco:wall:thickness = 0.2
    }

    over "wall_l0_h_014"
    {
     double aeco:wall:grossSideArea = 28
     double aeco:wall:grossVolume = 5.600000000000001
     double aeco:wall:netSideArea = 28
     double aeco:wall:netVolume = 5.600000000000001
     double aeco:wall:thickness = 0.2
    }

    over "wall_l0_h_007"
    {
     double aeco:wall:grossSideArea = 11.25
     double aeco:wall:grossVolume = 1.6874999999999998
     double aeco:wall:netSideArea = 11.249999999999998
     double aeco:wall:netVolume = 1.6875000000000004
     double aeco:wall:thickness = 0.14999999999999997
    }

    over "wall_l0_v_041"
    {
     double aeco:wall:grossSideArea = 62.99999999999999
     double aeco:wall:grossVolume = 18.9
     double aeco:wall:netSideArea = 62.99999999999999
     double aeco:wall:netVolume = 18.899999999999995
     double aeco:wall:thickness = 0.29999999999999993
    }

    over "wall_l0_h_021"
    {
     double aeco:wall:grossSideArea = 36.00000000000002
     double aeco:wall:grossVolume = 7.2000000000000055
     double aeco:wall:netSideArea = 36.00000000000002
     double aeco:wall:netVolume = 7.2000000000000055
     double aeco:wall:thickness = 0.2
    }

    over "wall_l0_v_060"
    {
     double aeco:wall:grossSideArea = 23.999999999999996
     double aeco:wall:grossVolume = 7.199999999999998
     double aeco:wall:netSideArea = 23.999999999999996
     double aeco:wall:netVolume = 7.200000000000024
     double aeco:wall:thickness = 0.29999999999999993
    }

    over "wall_l0_v_044"
    {
     double aeco:wall:grossSideArea = 107.99999999999999
     double aeco:wall:grossVolume = 21.6
     double aeco:wall:netSideArea = 107.99999999999999
     double aeco:wall:netVolume = 21.599999999999998
     double aeco:wall:thickness = 0.2
    }

    over "wall_l0_h_029"
    {
     double aeco:wall:grossSideArea = 72
     double aeco:wall:grossVolume = 14.400000000000002
     double aeco:wall:netSideArea = 72
     double aeco:wall:netVolume = 14.400000000000002
     double aeco:wall:thickness = 0.2
    }

    over "wall_l0_h_025"
    {
     double aeco:wall:grossSideArea = 35.999999999999986
     double aeco:wall:grossVolume = 7.1999999999999975
     double aeco:wall:netSideArea = 35.999999999999986
     double aeco:wall:netVolume = 7.1999999999999975
     double aeco:wall:thickness = 0.2
    }

    over "wall_l0_h_020"
    {
     double aeco:wall:grossSideArea = 35.999999999999986
     double aeco:wall:grossVolume = 7.1999999999999975
     double aeco:wall:netSideArea = 35.999999999999986
     double aeco:wall:netVolume = 7.1999999999999975
     double aeco:wall:thickness = 0.2
    }

    over "wall_l0_h_015"
    {
     double aeco:wall:grossSideArea = 125.99999999999997
     double aeco:wall:grossVolume = 37.79999999999999
     double aeco:wall:netSideArea = 125.99999999999997
     double aeco:wall:netVolume = 37.79999999999998
     double aeco:wall:thickness = 0.29999999999999993
    }

    over "wall_l0_v_057"
    {
     double aeco:wall:grossSideArea = 53.99999999999999
     double aeco:wall:grossVolume = 10.8
     double aeco:wall:netSideArea = 53.99999999999999
     double aeco:wall:netVolume = 10.79999999999988
     double aeco:wall:thickness = 0.2
    }

    over "wall_l0_h_037"
    {
     double aeco:wall:grossSideArea = 28
     double aeco:wall:grossVolume = 8.399999999999999
     double aeco:wall:netSideArea = 28
     double aeco:wall:netVolume = 8.40000000000003
     double aeco:wall:thickness = 0.29999999999999993
    }

    over "wall_l0_h_016"
    {
     double aeco:wall:grossSideArea = 42.00000000000003
     double aeco:wall:grossVolume = 12.600000000000007
     double aeco:wall:netSideArea = 42.00000000000003
     double aeco:wall:netVolume = 12.600000000000005
     double aeco:wall:thickness = 0.29999999999999993
    }

    over "wall_l0_v_071"
    {
     double aeco:wall:grossSideArea = 62.99999999999999
     double aeco:wall:grossVolume = 18.9
     double aeco:wall:netSideArea = 62.99999999999999
     double aeco:wall:netVolume = 18.90000000000007
     double aeco:wall:thickness = 0.29999999999999993
    }

    over "wall_l0_h_038"
    {
     double aeco:wall:grossSideArea = 209.99999999999994
     double aeco:wall:grossVolume = 62.99999999999997
     double aeco:wall:netSideArea = 209.99999999999994
     double aeco:wall:netVolume = 63.00000000000021
     double aeco:wall:thickness = 0.29999999999999993
    }

    over "wall_l0_v_073"
    {
     double aeco:wall:grossSideArea = 125.99999999999999
     double aeco:wall:grossVolume = 37.8
     double aeco:wall:netSideArea = 125.99999999999999
     double aeco:wall:netVolume = 37.80000000000014
     double aeco:wall:thickness = 0.29999999999999993
    }

    over "wall_l0_h_019"
    {
     double aeco:wall:grossSideArea = 71.99999999999999
     double aeco:wall:grossVolume = 14.4
     double aeco:wall:netSideArea = 71.99999999999999
     double aeco:wall:netVolume = 14.399999999999995
     double aeco:wall:thickness = 0.2
    }

    over "wall_l0_v_066"
    {
     double aeco:wall:grossSideArea = 53.99999999999999
     double aeco:wall:grossVolume = 10.8
     double aeco:wall:netSideArea = 53.99999999999999
     double aeco:wall:netVolume = 10.79999999999988
     double aeco:wall:thickness = 0.2
    }

    over "wall_l0_v_056"
    {
     double aeco:wall:grossSideArea = 35.99999999999999
     double aeco:wall:grossVolume = 7.2
     double aeco:wall:netSideArea = 35.99999999999999
     double aeco:wall:netVolume = 7.19999999999992
     double aeco:wall:thickness = 0.2
    }

    over "wall_l0_h_027"
    {
     double aeco:wall:grossSideArea = 36.00000000000002
     double aeco:wall:grossVolume = 7.2000000000000055
     double aeco:wall:netSideArea = 36.00000000000002
     double aeco:wall:netVolume = 7.2000000000000055
     double aeco:wall:thickness = 0.2
    }

    over "wall_l0_h_030"
    {
     double aeco:wall:grossSideArea = 23.999999999999996
     double aeco:wall:grossVolume = 3.599999999999999
     double aeco:wall:netSideArea = 23.999999999999996
     double aeco:wall:netVolume = 3.600000000000012
     double aeco:wall:thickness = 0.14999999999999997
    }

    over "wall_l0_h_013"
    {
     double aeco:wall:grossSideArea = 14
     double aeco:wall:grossVolume = 2.8000000000000007
     double aeco:wall:netSideArea = 14
     double aeco:wall:netVolume = 2.8000000000000003
     double aeco:wall:thickness = 0.2
    }

    over "wall_l0_v_045"
    {
     double aeco:wall:grossSideArea = 35.99999999999999
     double aeco:wall:grossVolume = 10.799999999999997
     double aeco:wall:netSideArea = 35.99999999999999
     double aeco:wall:netVolume = 10.799999999999956
     double aeco:wall:thickness = 0.29999999999999993
    }

    over "wall_l0_h_018"
    {
     double aeco:wall:grossSideArea = 84
     double aeco:wall:grossVolume = 25.2
     double aeco:wall:netSideArea = 84
     double aeco:wall:netVolume = 25.199999999999992
     double aeco:wall:thickness = 0.29999999999999993
    }

    over "wall_l0_h_024"
    {
     double aeco:wall:grossSideArea = 36
     double aeco:wall:grossVolume = 5.3999999999999995
     double aeco:wall:netSideArea = 36
     double aeco:wall:netVolume = 5.400000000000019
     double aeco:wall:thickness = 0.14999999999999997
    }

    over "wall_l0_h_006"
    {
     double aeco:wall:grossSideArea = 15
     double aeco:wall:grossVolume = 3.0000000000000004
     double aeco:wall:netSideArea = 15
     double aeco:wall:netVolume = 3.0000000000000004
     double aeco:wall:thickness = 0.2
    }

    over "wall_l0_v_050"
    {
     double aeco:wall:grossSideArea = 22.499999999999996
     double aeco:wall:grossVolume = 3.374999999999999
     double aeco:wall:netSideArea = 22.499999999999996
     double aeco:wall:netVolume = 3.375000000000012
     double aeco:wall:thickness = 0.14999999999999997
    }

    over "wall_l0_h_001"
    {
     double aeco:wall:grossSideArea = 24.000000000000004
     double aeco:wall:grossVolume = 7.2
     double aeco:wall:netSideArea = 23.999999999999996
     double aeco:wall:netVolume = 7.199999999999973
     double aeco:wall:thickness = 0.29999999999999993
    }

    over "wall_l0_v_062"
    {
     double aeco:wall:grossSideArea = 107.99999999999999
     double aeco:wall:grossVolume = 21.6
     double aeco:wall:netSideArea = 107.99999999999999
     double aeco:wall:netVolume = 21.600000000000232
     double aeco:wall:thickness = 0.2
    }

    over "wall_l0_v_054"
    {
     double aeco:wall:grossSideArea = 53.99999999999999
     double aeco:wall:grossVolume = 10.8
     double aeco:wall:netSideArea = 53.99999999999999
     double aeco:wall:netVolume = 10.799999999999999
     double aeco:wall:thickness = 0.2
    }

    over "wall_l0_v_046"
    {
     double aeco:wall:grossSideArea = 11.999999999999998
     double aeco:wall:grossVolume = 3.599999999999999
     double aeco:wall:netSideArea = 11.999999999999998
     double aeco:wall:netVolume = 3.5999999999999863
     double aeco:wall:thickness = 0.29999999999999993
    }

    over "wall_l0_h_026"
    {
     double aeco:wall:grossSideArea = 143.99999999999997
     double aeco:wall:grossVolume = 28.8
     double aeco:wall:netSideArea = 143.99999999999997
     double aeco:wall:netVolume = 28.799999999999994
     double aeco:wall:thickness = 0.2
    }

    over "wall_l0_h_004"
    {
     double aeco:wall:grossSideArea = 14.999999999999991
     double aeco:wall:grossVolume = 2.2499999999999987
     double aeco:wall:netSideArea = 14.999999999999991
     double aeco:wall:netVolume = 2.2499999999999907
     double aeco:wall:thickness = 0.14999999999999997
    }

    over "wall_l0_h_034"
    {
     double aeco:wall:grossSideArea = 23.999999999999996
     double aeco:wall:grossVolume = 3.599999999999999
     double aeco:wall:netSideArea = 23.999999999999996
     double aeco:wall:netVolume = 3.600000000000013
     double aeco:wall:thickness = 0.14999999999999997
    }

    over "wall_l0_v_059"
    {
     double aeco:wall:grossSideArea = 23.999999999999996
     double aeco:wall:grossVolume = 7.199999999999998
     double aeco:wall:netSideArea = 23.999999999999996
     double aeco:wall:netVolume = 7.200000000000024
     double aeco:wall:thickness = 0.29999999999999993
    }

    over "wall_l0_h_031"
    {
     double aeco:wall:grossSideArea = 179.99999999999997
     double aeco:wall:grossVolume = 36
     double aeco:wall:netSideArea = 179.99999999999997
     double aeco:wall:netVolume = 35.99999999999999
     double aeco:wall:thickness = 0.2
    }

    over "wall_l0_h_023"
    {
     double aeco:wall:grossSideArea = 71.99999999999999
     double aeco:wall:grossVolume = 14.4
     double aeco:wall:netSideArea = 71.99999999999999
     double aeco:wall:netVolume = 14.399999999999995
     double aeco:wall:thickness = 0.2
    }

    over "wall_l0_h_035"
    {
     double aeco:wall:grossSideArea = 27.999999999999996
     double aeco:wall:grossVolume = 8.399999999999999
     double aeco:wall:netSideArea = 27.99999999999999
     double aeco:wall:netVolume = 8.400000000000029
     double aeco:wall:thickness = 0.29999999999999993
    }
   }

   over "L02_Office"
   {
    over "wall_l2_h_007"
    {
     double aeco:wall:grossSideArea = 11.999999999999993
     double aeco:wall:grossVolume = 1.7999999999999987
     double aeco:wall:netSideArea = 11.999999999999998
     double aeco:wall:netVolume = 1.7999999999999996
     double aeco:wall:thickness = 0.14999999999999997
    }

    over "wall_l2_h_003"
    {
     double aeco:wall:grossSideArea = 11.999999999999993
     double aeco:wall:grossVolume = 3.5999999999999974
     double aeco:wall:netSideArea = 11.999999999999998
     double aeco:wall:netVolume = 3.5999999999999868
     double aeco:wall:thickness = 0.29999999999999993
    }

    over "wall_l2_v_019"
    {
     double aeco:wall:grossSideArea = 8.999999999999993
     double aeco:wall:grossVolume = 2.699999999999998
     double aeco:wall:netSideArea = 8.999999999999996
     double aeco:wall:netVolume = 2.7000000000000086
     double aeco:wall:thickness = 0.29999999999999993
    }

    over "wall_l2_v_014"
    {
     double aeco:wall:grossSideArea = 26.99999999999998
     double aeco:wall:grossVolume = 4.049999999999996
     double aeco:wall:netSideArea = 26.999999999999986
     double aeco:wall:netVolume = 4.050000000000012
     double aeco:wall:thickness = 0.14999999999999997
    }

    over "wall_l2_h_010"
    {
     double aeco:wall:grossSideArea = 44.99999999999997
     double aeco:wall:grossVolume = 13.499999999999991
     double aeco:wall:netSideArea = 44.999999999999986
     double aeco:wall:netVolume = 13.499999999999993
     double aeco:wall:thickness = 0.29999999999999993
    }

    over "wall_l2_h_008"
    {
     double aeco:wall:grossSideArea = 11.999999999999993
     double aeco:wall:grossVolume = 1.7999999999999987
     double aeco:wall:netSideArea = 11.999999999999998
     double aeco:wall:netVolume = 1.7999999999999996
     double aeco:wall:thickness = 0.14999999999999997
    }

    over "wall_l2_h_004"
    {
     double aeco:wall:grossSideArea = 11.999999999999993
     double aeco:wall:grossVolume = 1.7999999999999987
     double aeco:wall:netSideArea = 11.999999999999998
     double aeco:wall:netVolume = 1.7999999999999934
     double aeco:wall:thickness = 0.14999999999999997
    }

    over "wall_l2_v_013"
    {
     double aeco:wall:grossSideArea = 8.999999999999993
     double aeco:wall:grossVolume = 1.349999999999999
     double aeco:wall:netSideArea = 8.999999999999996
     double aeco:wall:netVolume = 1.3500000000000043
     double aeco:wall:thickness = 0.14999999999999997
    }

    over "wall_l2_v_016"
    {
     double aeco:wall:grossSideArea = 24.599999999999977
     double aeco:wall:grossVolume = 3.6899999999999955
     double aeco:wall:netSideArea = 24.14999999999999
     double aeco:wall:netVolume = 3.622500000000011
     double aeco:wall:thickness = 0.14999999999999997
    }

    over "wall_l2_h_006"
    {
     double aeco:wall:grossSideArea = 20.99999999999998
     double aeco:wall:grossVolume = 3.149999999999996
     double aeco:wall:netSideArea = 20.99999999999999
     double aeco:wall:netVolume = 3.149999999999998
     double aeco:wall:thickness = 0.14999999999999997
    }

    over "wall_l2_v_012"
    {
     double aeco:wall:grossSideArea = 8.999999999999993
     double aeco:wall:grossVolume = 2.699999999999998
     double aeco:wall:netSideArea = 8.999999999999996
     double aeco:wall:netVolume = 2.699999999999989
     double aeco:wall:thickness = 0.29999999999999993
    }

    over "wall_l2_v_018"
    {
     double aeco:wall:grossSideArea = 14.999999999999991
     double aeco:wall:grossVolume = 4.499999999999997
     double aeco:wall:netSideArea = 14.999999999999996
     double aeco:wall:netVolume = 4.500000000000016
     double aeco:wall:thickness = 0.29999999999999993
    }

    over "wall_l2_v_015"
    {
     double aeco:wall:grossSideArea = 11.999999999999991
     double aeco:wall:grossVolume = 1.7999999999999983
     double aeco:wall:netSideArea = 11.999999999999993
     double aeco:wall:netVolume = 1.8000000000000058
     double aeco:wall:thickness = 0.14999999999999997
    }

    over "wall_l2_v_011"
    {
     double aeco:wall:grossSideArea = 26.99999999999998
     double aeco:wall:grossVolume = 8.099999999999993
     double aeco:wall:netSideArea = 26.999999999999986
     double aeco:wall:netVolume = 8.099999999999968
     double aeco:wall:thickness = 0.29999999999999993
    }

    over "wall_l2_h_005"
    {
     double aeco:wall:grossSideArea = 8.999999999999995
     double aeco:wall:grossVolume = 1.349999999999999
     double aeco:wall:netSideArea = 8.999999999999998
     double aeco:wall:netVolume = 1.3499999999999999
     double aeco:wall:thickness = 0.14999999999999997
    }

    over "wall_l2_v_017"
    {
     double aeco:wall:grossSideArea = 11.999999999999991
     double aeco:wall:grossVolume = 3.5999999999999965
     double aeco:wall:netSideArea = 11.999999999999993
     double aeco:wall:netVolume = 3.6000000000000116
     double aeco:wall:thickness = 0.29999999999999993
    }

    over "wall_l2_h_001"
    {
     double aeco:wall:grossSideArea = 29.99999999999998
     double aeco:wall:grossVolume = 8.999999999999993
     double aeco:wall:netSideArea = 29.99999999999999
     double aeco:wall:netVolume = 8.999999999999964
     double aeco:wall:thickness = 0.29999999999999993
    }

    over "wall_l2_h_009"
    {
     double aeco:wall:grossSideArea = 8.999999999999995
     double aeco:wall:grossVolume = 2.699999999999998
     double aeco:wall:netSideArea = 8.999999999999998
     double aeco:wall:netVolume = 2.699999999999999
     double aeco:wall:thickness = 0.29999999999999993
    }

    over "wall_l2_h_002"
    {
     double aeco:wall:grossSideArea = 11.999999999999993
     double aeco:wall:grossVolume = 3.5999999999999974
     double aeco:wall:netSideArea = 11.999999999999998
     double aeco:wall:netVolume = 3.5999999999999868
     double aeco:wall:thickness = 0.29999999999999993
    }
   }
  }
 }

 over "_TypeCatalog"
 {
  over "Basic_Wall_DC_External"
  {
   double aeco:buildUp:totalThickness = 0.29999999999999993
  }

  over "Basic_Wall_DC_Internal"
  {
   double aeco:buildUp:totalThickness = 0.14999999999999997
  }

  over "Basic_Wall_DC_Fire"
  {
   double aeco:buildUp:totalThickness = 0.2
  }
 }
}

