#usda 1.0
(
 customLayerData = {
  string "aeco:layer:package" = "wall"
  string "aeco:layer:producer" = "hook v0.2.5"
  string "aeco:layer:role" = "analysis"
  string "aeco:layer:source" = "kind/usdaeco-wall/examples/datacentre/run.py"
  string "aeco:layer:sourceSha256" = "9e18f0a19e4439b31ec3dbb5c225b2806f76e62202406a6d905bac191b147479"
  string "aeco:layer:tag" = "v0.2.5"
 }
)

def "Renders"
{
 def "wall"
 {
  def Camera "partition_corner"
  {
   float4[] clippingPlanes = []
   float2 clippingRange = (0.1, 106.94465)
   float focalLength = 45
   float focusDistance = 0
   float fStop = 0
   float horizontalAperture = 24
   float horizontalApertureOffset = 0
   token projection = "perspective"
   float verticalAperture = 15
   float verticalApertureOffset = 0
   matrix4d xformOp:transform = ( (0.847998304005088, -0.52999894000318, -2.7755575615628914e-17, 0), (0.2669368287338288, 0.42709892597412596, 0.8639046457203912, 0), (-0.4578685464956301, -0.732589674393008, 0.503655401145193, 0), (11.795852112581414, -24.586636622253927, 18.96581267779957, 0.9999999999999999) )
   uniform token[] xformOpOrder = ["xformOp:transform"]
  }
 }
}

